<svg width="232" height="266" viewBox="0 0 232 266" fill="none" xmlns="http://www.w3.org/2000/svg">
<rect x="186" y="54" width="46" height="22" rx="11" fill="#FF5C00"/>
<rect x="200.098" y="65" width="35.242" height="16.8548" rx="8.42742" transform="rotate(36.8067 200.098 65)" fill="#FF5C00"/>
<rect x="98.3737" width="101" height="35.9346" rx="17.9673" transform="rotate(13.4754 98.3737 0)" fill="#30008C"/>
<rect x="153" y="173" width="17" height="77" rx="8.5" fill="#DFA500"/>
<rect x="132" y="257" width="17" height="77" rx="8.5" transform="rotate(-90 132 257)" fill="#DFA500"/>
<rect x="130" y="180" width="17" height="77" rx="8.5" fill="#F5C642"/>
<rect x="186" y="249" width="17" height="77" rx="8.5" transform="rotate(90 186 249)" fill="#F5C642"/>
<rect x="147" y="169" width="29" height="36" rx="12" fill="#212BFF"/>
<rect x="124" y="193" width="29" height="36" rx="12" fill="#212BFF"/>
<rect x="49.1208" y="179.073" width="136.518" height="86.4648" rx="43.2324" transform="rotate(-45.0065 49.1208 179.073)" fill="#30008C"/>
<rect x="44" y="194.929" width="136.97" height="25.3124" rx="12.6562" transform="rotate(-43.8732 44 194.929)" fill="#212BFF"/>
<rect y="205.445" width="173.786" height="25.3124" rx="12.6562" transform="rotate(-43.8732 0 205.445)" fill="#212BFF"/>
<rect x="109" y="14" width="100" height="100" rx="50" fill="#212BFF"/>
<rect x="167" y="39" width="30" height="30" rx="15" fill="white"/>
<rect x="176" y="56" width="30" height="30" rx="15" fill="#212BFF"/>
</svg>
