<svg width="282" height="298" viewBox="0 0 282 298" fill="none" xmlns="http://www.w3.org/2000/svg">
<rect x="153" y="205" width="17" height="77" rx="8.5" fill="#DFA500"/>
<rect x="132" y="289" width="17" height="77" rx="8.5" transform="rotate(-90 132 289)" fill="#DFA500"/>
<rect x="147" y="201" width="29" height="36" rx="12" fill="#212BFF"/>
<rect x="130" y="212" width="17" height="77" rx="8.5" fill="#F5C642"/>
<rect x="186" y="281" width="17" height="77" rx="8.5" transform="rotate(90 186 281)" fill="#F5C642"/>
<rect x="124" y="225" width="29" height="36" rx="12" fill="#212BFF"/>
<rect x="49.1208" y="211.073" width="136.518" height="86.4648" rx="43.2324" transform="rotate(-45.0065 49.1208 211.073)" fill="#30008C"/>
<rect x="44" y="226.929" width="136.97" height="25.3124" rx="12.6562" transform="rotate(-43.8732 44 226.929)" fill="#212BFF"/>
<rect y="237.445" width="173.786" height="25.3124" rx="12.6562" transform="rotate(-43.8732 0 237.445)" fill="#212BFF"/>
<rect x="200.48" y="111.921" width="46" height="22" rx="11" transform="rotate(35.5781 200.48 111.921)" fill="#FF5C00"/>
<rect x="205.546" y="129.07" width="35.242" height="16.8548" rx="8.42742" transform="rotate(72.3848 205.546 129.07)" fill="#FF5C00"/>
<rect x="191.743" y="12.4417" width="101" height="35.9346" rx="17.9673" transform="rotate(70.0127 191.743 12.4417)" fill="#30008C"/>
<rect x="161.126" y="34.589" width="100" height="100" rx="50" transform="rotate(35.5781 161.126 34.589)" fill="#212BFF"/>
<rect x="193.754" y="88.6671" width="30" height="30" rx="15" transform="rotate(35.5781 193.754 88.6671)" fill="white"/>
<rect x="180.687" y="101.497" width="30" height="30" rx="15" transform="rotate(35.5781 180.687 101.497)" fill="#212BFF"/>
</svg>
